<svg width="1000" height="1000" viewBox="0 0 1000 1000" fill="none" xmlns="http://www.w3.org/2000/svg">
<path d="M413 182.675C397.175 183.575 382.325 187.575 367.825 194.85C357.225 200.15 349.275 205.825 340.8 214.125C325.55 229.025 314.45 247 305.925 270.625C300.075 286.75 295.8 305.15 293.625 323.375C293.425 325.15 293.175 327.05 293.1 327.575L292.95 328.5L270.8 328.45L248.625 328.375L245.975 327.1C239.2 323.825 234.6 319.4 233.125 314.7C232.325 312.2 232.275 308.825 232.975 306.8C233.225 306.075 233.35 305.45 233.25 305.375C233.175 305.325 232.275 305.05 231.3 304.775L229.5 304.275L229.1 305.2C228.425 306.85 228.175 308.55 228.325 311.1C228.475 314.05 229.075 316.175 230.425 318.475C232.1 321.275 236.4 325.225 240.3 327.525C241.075 327.975 241.7 328.4 241.65 328.45C241.575 328.525 231.425 329.225 230.2 329.25C229.825 329.25 229.75 329.5 229.75 331V332.75H261.15H292.575L292.425 334.55C292.025 339.25 291.475 348.6 291.3 353L291.125 357.875L290.05 355.875C289.475 354.775 288.9 353.725 288.775 353.55C288.625 353.275 288.2 353.4 286.775 354.1C285.8 354.6 285 355.075 285 355.15C285 355.225 285.325 355.75 285.7 356.325C289 361.2 290.5 366.225 290.5 372.225C290.5 377.625 289.45 381.325 286.775 385.4C282.85 391.35 276.25 395.275 267.875 396.625C266.65 396.825 264.75 397 263.7 397H261.75V373.9V350.8L260.975 350.65C259.775 350.425 255.725 350.475 252.5 350.775C246.875 351.275 242.125 352.7 238.625 354.875C231.925 359.075 228.725 364.7 228.325 372.925C228.1 377.675 228.8 380.9 231 385.3C232.4 388.125 233.85 390.05 236.275 392.375C241.85 397.725 249.3 400.8 258.2 401.475C261.85 401.775 266.6 401.525 269.95 400.875C278.8 399.175 286.25 394.375 290.3 387.725C291.425 385.875 291.4 385.85 291.625 390.875C291.95 398.975 293.1 411 294.375 419.875C299.25 453.7 310.475 484.25 326.15 506.25C335 518.7 346.15 529.625 357.875 537.325C367.3 543.5 376.1 547.45 387.8 550.75C397.925 553.625 407.55 554.85 419.625 554.875C427.15 554.875 430.25 554.675 436.5 553.85C448.75 552.225 462.6 547.9 472.7 542.6C483.4 536.95 491.925 530.45 501.5 520.575C504.425 517.575 519.4 503.625 542 482.875C561.725 464.75 578.4 449.425 579.05 448.8C579.7 448.175 580.3 447.7 580.35 447.775C580.4 447.825 580.25 449.625 580 451.75C579.525 455.5 579.525 460.625 579.5 617.05V778.5H536.75H494V785.75V793H586.25H678.5V785.75V778.5H637.25H596V768.675L596.025 758.875L596.825 760.75C597.6 762.475 599.7 766.675 600.225 767.45C600.375 767.725 600.8 767.6 602.225 766.9C603.2 766.4 604 765.95 604 765.9C604 765.85 603.4 764.85 602.65 763.65C600.925 760.925 599.65 757.725 598.975 754.45C598.275 751 598.4 744.9 599.225 742.05C602.025 732.5 610.025 726.075 621.25 724.375C622.55 724.175 624.45 724 625.45 724H627.25V747.1V770.225L628.425 770.4C629.875 770.625 636.175 770.375 638.875 770C642 769.55 645.425 768.55 647.925 767.375C650.8 766.025 652.175 765.075 654.35 763.025C658.425 759.1 660.35 754.55 660.675 748.075C660.9 743.325 660.2 740.1 658 735.7C654.75 729.175 648.95 724.35 640.975 721.55C633.325 718.85 622.75 718.7 614.9 721.175C606.575 723.8 600.075 729.4 596.875 736.675L596.025 738.625L596 719.7V700.775L619.325 700.675C639.925 700.6 642.875 700.525 644.75 700.15C648.05 699.5 649.45 699.05 651.975 697.85C656.1 695.85 658.9 692.325 660.175 687.5C660.8 685.175 660.8 678.5 660.175 676.275C658.925 671.675 656.6 667.975 651.45 662.225C650.225 660.85 649.25 659.675 649.3 659.625C649.325 659.575 651.575 659.4 654.25 659.225L659.125 658.875L659.2 657.05L659.275 655.25H627.625H596V632.675L596.025 610.125L596.725 611.925C600.9 622.475 611.125 630.35 624.875 633.575C629.85 634.75 633.125 635.1 639.5 635.1C647.475 635.125 652.15 634.5 658.2 632.6C672.7 628.075 681.875 618.625 684.175 605.9C684.725 602.875 684.725 596.875 684.175 593.85C681.4 578.475 668.9 568.1 649.5 565.075C645.475 564.45 634.4 564.45 630.225 565.075C613.425 567.6 601.775 575.525 596.6 587.975L596.025 589.375L596 507.175V425H590.25H584.475L558.55 448.325C544.275 461.15 532.5 471.725 532.35 471.825C532.2 471.9 532.675 470.375 533.425 468.425C541.1 448.075 545.925 425 547.875 399.25C549.25 381 549.325 360.1 548.1 341.875C545.9 308.85 539.375 280.75 528.325 256.625C519 236.275 504.425 217.375 488.85 205.45C478.125 197.275 464.675 190.625 450.9 186.725C439.525 183.5 425.175 181.975 413 182.675ZM431.125 197.6C442.925 199.05 452.65 201.925 462.175 206.85C465.975 208.825 470.75 211.775 470.75 212.175C470.75 212.375 361.325 513.3 359.775 517.325L359.5 518.05L356.975 515.7C352.25 511.375 345.8 504.1 341.175 497.9C326.775 478.6 315.85 451.675 311.1 423.825C308.525 408.675 307.35 393.95 307.075 374C306.475 327.65 312.325 294.65 326.625 263.75C338.225 238.65 355.85 218.85 376.75 207.45C386.225 202.275 398.45 198.575 409.5 197.525C411.075 197.375 412.825 197.2 413.375 197.15C415.725 196.925 428.05 197.225 431.125 197.6ZM485.525 224.05C501.1 239.35 511.65 256.6 519.625 279.75C527.475 302.65 531.1 324.05 532.275 354.75C532.6 363.125 532.45 382.55 532 390.25C530.85 410.225 528.325 427.625 524.6 441.375C520.95 454.875 516.875 465.975 511.625 476.625C504.425 491.25 496.975 501.575 485.675 512.65C481.075 517.175 477.875 519.9 473.25 523.3C457.3 534.9 438.475 540.475 416.875 539.925C400.15 539.5 385.95 535.65 373.225 528.1C371.1 526.825 370.5 526.35 370.55 526C370.675 525.25 481.6 220.5 481.75 220.5C481.825 220.5 483.525 222.1 485.525 224.05ZM257.75 375.875V397H256.85C255.675 397 251.275 396.1 249.375 395.475C240.425 392.475 233.925 385.775 232.525 378.15C232.15 376.1 232.2 371.95 232.6 370C233.8 364.425 237.2 360.125 242.375 357.625C245.875 355.925 250.975 354.825 255.7 354.775L257.75 354.75V375.875ZM643.925 569.25C655.85 569.975 665.35 573.5 671.975 579.625C678.4 585.6 681.525 595.05 680.125 604.25C678.2 617.025 668 626.175 652.125 629.375C648.025 630.2 644.725 630.5 639.75 630.5C632.675 630.5 627.05 629.675 621.125 627.75C608.975 623.8 601.125 615.725 599.125 605.15C598.675 602.825 598.6 597.575 598.975 595.225C601.375 580.425 615.05 570.55 634.9 569.275C639.45 569 639.7 568.975 643.925 569.25ZM645.15 660.3C646.6 661.575 650.55 666.025 652.25 668.3C654.05 670.7 655.225 672.9 656 675.375C656.775 677.775 656.975 683.125 656.4 685.575C655.025 691.375 651.1 694.525 643.45 695.925C641.4 696.3 638.525 696.35 618.575 696.425L596 696.525V678.025V659.5H620.125H644.225L645.15 660.3ZM637.275 724.9C645.475 726.975 651.675 731.575 654.75 737.875C656.325 741.125 656.625 742.55 656.6 747C656.6 750.5 656.525 751.075 655.925 752.875C654.25 757.925 650.5 761.9 645.475 763.925C642.15 765.275 636.825 766.25 632.875 766.25H631.25V745.1V723.925L632.95 724.075C633.9 724.175 635.825 724.55 637.275 724.9Z" fill="white"/>
<path d="M257.55 243.025C248.7 243.7 241.375 246.85 235.85 252.375C232.5 255.725 230.375 259.5 228.95 264.675C228.5 266.325 228.4 267.3 228.4 271C228.4 275.8 228.7 277.35 230.225 281.05C233.775 289.575 241.75 295.775 252 298.025C259.075 299.55 267.875 299.2 274.15 297.125C284.325 293.75 291.225 286.95 293.675 277.875C294.275 275.625 294.35 274.95 294.35 270.875C294.35 266.95 294.3 266.1 293.8 264.25C293.125 261.725 290.95 257.175 289.5 255.25C286.825 251.65 283.15 248.675 278.875 246.625C274.325 244.425 270.475 243.425 265 243C261.55 242.725 261.225 242.725 257.55 243.025ZM266.825 247.625C278.825 249.2 287.8 256.25 290 265.85C290.475 267.925 290.55 268.75 290.45 271.825C290.35 274.95 290.25 275.65 289.55 277.65C286.8 285.75 279.4 291.625 269.175 293.775C265.825 294.5 258.375 294.575 254.825 293.925C246.225 292.35 239.425 288.275 235.575 282.4C234.125 280.225 232.925 277.175 232.475 274.6C232.05 272.075 232.3 267.05 233 264.875C235.375 257.45 241.25 251.85 249.6 249.125C254.95 247.375 261 246.85 266.825 247.625Z" fill="white"/>
<path d="M288.95 437.45L288.875 463.4L248.625 437.7C209.75 412.9 208.325 412 207.2 412H206V438.25V464.5H207.875H209.75V441.125C209.75 428.275 209.8 417.75 209.85 417.75C209.925 417.75 228.1 429.325 250.25 443.5C289.8 468.8 290.55 469.25 291.75 469.25H293V440.375V411.5H291H289L288.95 437.45Z" fill="white"/>
</svg>
